<svg width="101" height="89" viewBox="0 0 101 89" fill="none" xmlns="http://www.w3.org/2000/svg">
<g id="React-icon 1" clip-path="url(#clip0_143_298)">
<path id="Vector" d="M50.5 53.3988C55.4225 53.3988 59.413 49.4083 59.413 44.4858C59.413 39.5633 55.4225 35.5728 50.5 35.5728C45.5774 35.5728 41.5869 39.5633 41.5869 44.4858C41.5869 49.4083 45.5774 53.3988 50.5 53.3988Z" fill="#61DAFB"/>
<g id="Group">
<path id="Vector_2" d="M50.4999 62.7467C76.9135 62.7467 98.326 54.571 98.326 44.4858C98.326 34.4006 76.9135 26.225 50.4999 26.225C24.0863 26.225 2.67383 34.4006 2.67383 44.4858C2.67383 54.571 24.0863 62.7467 50.4999 62.7467Z" stroke="#61DAFB"/>
<path id="Vector_3" d="M34.6857 53.6162C47.8925 76.4911 65.679 90.947 74.4131 85.9044C83.1471 80.8618 79.5212 58.2302 66.3144 35.3554C53.1076 12.4805 35.321 -1.9754 26.587 3.0672C17.8529 8.1098 21.4788 30.7414 34.6857 53.6162Z" stroke="#61DAFB"/>
<path id="Vector_4" d="M34.6857 35.3554C21.4789 58.2302 17.853 80.8618 26.5871 85.9044C35.3211 90.947 53.1077 76.4911 66.3145 53.6162C79.5213 30.7414 83.1472 8.1098 74.4132 3.0672C65.6791 -1.9754 47.8926 12.4805 34.6857 35.3554Z" stroke="#61DAFB"/>
</g>
</g>
<defs>
<clipPath id="clip0_143_298">
<rect width="100" height="88.9716" fill="white" transform="translate(0.5)"/>
</clipPath>
</defs>
</svg>
